<svg width="241" height="56" fill="none" xmlns="http://www.w3.org/2000/svg">
    <path d="M.585 44h8.714V32.288l4.286-5.233L24.875 44h10.424L19.824 21.24 35.118 2.784H24.674L9.842 20.958H9.3V2.785H.585V44ZM48.31 44.584c4.568 0 7.526-1.993 9.035-4.87h.242V44h8.13V23.151c0-7.365-6.238-10.464-13.12-10.464-7.407 0-12.277 3.542-13.464 9.176l7.929.644c.584-2.052 2.415-3.562 5.494-3.562 2.918 0 4.588 1.47 4.588 4.005v.12c0 1.993-2.113 2.255-7.486 2.778-6.118.563-11.612 2.616-11.612 9.519 0 6.117 4.367 9.217 10.264 9.217Zm2.455-5.917c-2.636 0-4.528-1.227-4.528-3.582 0-2.415 1.992-3.602 5.01-4.025 1.872-.261 4.931-.704 5.958-1.388v3.28c0 3.24-2.677 5.715-6.44 5.715ZM81.183 44.584c4.568 0 7.526-1.993 9.036-4.87h.241V44h8.13V23.151c0-7.365-6.238-10.464-13.12-10.464-7.406 0-12.277 3.542-13.464 9.176l7.929.644c.584-2.052 2.415-3.562 5.494-3.562 2.918 0 4.588 1.47 4.588 4.005v.12c0 1.993-2.113 2.255-7.486 2.778-6.118.563-11.612 2.616-11.612 9.519 0 6.117 4.367 9.217 10.264 9.217Zm2.455-5.917c-2.636 0-4.528-1.227-4.528-3.582 0-2.415 1.992-3.602 5.01-4.025 1.872-.261 4.931-.704 5.958-1.388v3.28c0 3.24-2.677 5.715-6.44 5.715ZM105.241 55.592h8.573V39.049h.262c1.187 2.576 3.783 5.454 8.774 5.454 7.044 0 12.538-5.574 12.538-15.918 0-10.626-5.736-15.898-12.518-15.898-5.172 0-7.647 3.079-8.794 5.594h-.382V13.09h-8.453v42.503Zm8.392-27.047c0-5.515 2.335-9.036 6.5-9.036 4.247 0 6.5 3.683 6.5 9.036 0 5.393-2.294 9.136-6.5 9.136-4.125 0-6.5-3.622-6.5-9.136ZM155.069 44.604c9.378 0 15.214-6.42 15.214-15.939 0-9.579-5.836-15.978-15.214-15.978s-15.214 6.4-15.214 15.978c0 9.52 5.836 15.939 15.214 15.939Zm.04-6.641c-4.326 0-6.54-3.965-6.54-9.358 0-5.393 2.214-9.378 6.54-9.378 4.247 0 6.46 3.985 6.46 9.378 0 5.393-2.213 9.358-6.46 9.358ZM207.151 13.09h-6.843V9.305c0-3.24 1.751-5.051 4.871-5.051 1.187 0 1.911.261 2.455.442l1.046-3.14c-.724-.301-1.932-.683-3.823-.683-4.206 0-8.151 2.696-8.151 7.687v4.528h-4.749v3.12h4.749V44h3.582l.02-27.792h6.843V13.09ZM214.34 44h3.602V13.09h-3.602V44Zm1.831-36.224c1.47 0 2.697-1.167 2.697-2.576 0-1.408-1.227-2.576-2.697-2.576-1.469 0-2.676 1.168-2.676 2.576 0 1.41 1.207 2.576 2.676 2.576ZM239.591 13.09h-6.54V5.682h-3.603v7.406h-4.608v3.12h4.608v20.566c0 5.052 3.985 7.688 7.95 7.688 1.489 0 2.495-.282 3.179-.544l-.765-3.24a7.35 7.35 0 0 1-2.092.282c-2.436 0-4.669-1.147-4.669-5.03V16.207h6.54V13.09Z"
          fill="#fff"/>
    <path d="M181.09 44.584c2.757 0 5.192-2.335 5.232-5.233-.04-2.857-2.475-5.172-5.232-5.172-2.898 0-5.273 2.315-5.233 5.172-.04 2.898 2.335 5.233 5.233 5.233Z"
          fill="#00B39A"/>
</svg>